<?xml version="1.0" encoding="UTF-8" standalone="no"?>
<!-- Created with Inkscape (http://www.inkscape.org/) -->

<svg
   xmlns:osb="http://www.openswatchbook.org/uri/2009/osb"
   xmlns:dc="http://purl.org/dc/elements/1.1/"
   xmlns:cc="http://creativecommons.org/ns#"
   xmlns:rdf="http://www.w3.org/1999/02/22-rdf-syntax-ns#"
   xmlns:svg="http://www.w3.org/2000/svg"
   xmlns="http://www.w3.org/2000/svg"
   xmlns:xlink="http://www.w3.org/1999/xlink"
   xmlns:sodipodi="http://sodipodi.sourceforge.net/DTD/sodipodi-0.dtd"
   xmlns:inkscape="http://www.inkscape.org/namespaces/inkscape"
   width="152.39999mm"
   height="101.6mm"
   viewBox="0 0 540.00001 360.00001"
   id="svg2"
   version="1.1"
   inkscape:version="0.91 r13725"
   sodipodi:docname="minimalist_thin_moving.svg"
   inkscape:export-filename="/Users/justus/Box Sync/My Personal Workspace/Private/Hochzeitseinladungen/minimalist_thin_moving.png"
   inkscape:export-xdpi="90"
   inkscape:export-ydpi="90">
  <defs
     id="defs4">
    <inkscape:perspective
       sodipodi:type="inkscape:persp3d"
       inkscape:vp_x="0 : 180 : 1"
       inkscape:vp_y="0 : 1000 : 0"
       inkscape:vp_z="540.00001 : 180 : 1"
       inkscape:persp3d-origin="270 : 120 : 1"
       id="perspective4602" />
    <linearGradient
       id="linearGradient4357"
       osb:paint="solid">
      <stop
         style="stop-color:#000000;stop-opacity:1;"
         offset="0"
         id="stop4359" />
    </linearGradient>
  </defs>
  <sodipodi:namedview
     id="base"
     pagecolor="#ffffff"
     bordercolor="#666666"
     borderopacity="1.0"
     inkscape:pageopacity="0.0"
     inkscape:pageshadow="2"
     inkscape:zoom="1.0135072"
     inkscape:cx="506.20868"
     inkscape:cy="163.38042"
     inkscape:document-units="px"
     inkscape:current-layer="layer1"
     showgrid="false"
     units="mm"
     inkscape:window-width="1695"
     inkscape:window-height="988"
     inkscape:window-x="19"
     inkscape:window-y="12"
     inkscape:window-maximized="0"
     showguides="true"
     inkscape:guide-bbox="true">
    <sodipodi:guide
       position="-140.10754,279.22841"
       orientation="1,0"
       id="guide4316" />
  </sodipodi:namedview>
  <metadata
     id="metadata7">
    <rdf:RDF>
      <cc:Work
         rdf:about="">
        <dc:format>image/svg+xml</dc:format>
        <dc:type
           rdf:resource="http://purl.org/dc/dcmitype/StillImage" />
        <dc:title />
      </cc:Work>
    </rdf:RDF>
  </metadata>
  <g
     inkscape:label="Layer 1"
     inkscape:groupmode="layer"
     id="layer1"
     transform="translate(0,-692.36215)">
    <text
       xml:space="preserve"
       style="font-style:normal;font-weight:normal;font-size:40px;line-height:125%;font-family:sans-serif;letter-spacing:0px;word-spacing:0px;fill:#000000;fill-opacity:1;stroke:none;stroke-width:1px;stroke-linecap:butt;stroke-linejoin:miter;stroke-opacity:1"
       x="18.75"
       y="991.42462"
       id="text4159"
       sodipodi:linespacing="125%"><tspan
         sodipodi:role="line"
         id="tspan4161"
         x="18.75"
         y="991.42462" /></text>
    <path
       sodipodi:nodetypes="cc"
       inkscape:connector-curvature="0"
       id="path4909"
       d="m 596.75547,803.41382 c 186.24242,15.73986 386.45645,11.47233 537.49983,-3.01864"
       style="fill:none;fill-rule:evenodd;stroke:#ffffff;stroke-width:1.00601506;stroke-linecap:butt;stroke-linejoin:miter;stroke-miterlimit:4;stroke-dasharray:none;stroke-opacity:1" />
    <flowRoot
       xml:space="preserve"
       id="flowRoot4299"
       style="fill:black;stroke:none;stroke-opacity:1;stroke-width:1px;stroke-linejoin:miter;stroke-linecap:butt;fill-opacity:1;font-family:sans-serif;font-style:normal;font-weight:normal;font-size:40px;line-height:125%;letter-spacing:0px;word-spacing:0px"><flowRegion
         id="flowRegion4301"><rect
           id="rect4303"
           width="22.627417"
           height="44.547726"
           x="340.82544"
           y="251.10556" /></flowRegion><flowPara
         id="flowPara4305" /></flowRoot>    <g
       id="g4332"
       inkscape:export-xdpi="90"
       inkscape:export-ydpi="90">
      <rect
         y="691.23987"
         x="-0.98667282"
         height="363.09558"
         width="542.67004"
         id="rect4320"
         style="opacity:1;fill:#ffffff;fill-opacity:1;fill-rule:evenodd;stroke:none;stroke-width:1.00601506;stroke-miterlimit:4;stroke-dasharray:none;stroke-opacity:1" />
      <path
         inkscape:export-ydpi="90"
         inkscape:export-xdpi="90"
         sodipodi:nodetypes="cc"
         inkscape:connector-curvature="0"
         id="path3336"
         d="M 0.92961864,811.01608 C 187.17204,826.75594 388.80028,821.7813 539.84367,807.29033"
         style="fill:none;fill-rule:evenodd;stroke:#000000;stroke-width:1;stroke-linecap:butt;stroke-linejoin:miter;stroke-miterlimit:4;stroke-dasharray:none;stroke-opacity:1" />
      <path
         inkscape:export-ydpi="90"
         inkscape:export-xdpi="90"
         transform="matrix(0.00860915,-0.99996294,0.99996294,0.00860915,0,0)"
         sodipodi:open="true"
         d="m -836.95945,234.48344 a 34.765625,32.421875 0 0 1 -35.07751,27.23353 34.765625,32.421875 0 0 1 -33.77004,-28.63483 34.765625,32.421875 0 0 1 25.74276,-35.1488 34.765625,32.421875 0 0 1 40.88588,18.91896"
         sodipodi:end="5.8890438"
         sodipodi:start="0.16047593"
         sodipodi:ry="32.421875"
         sodipodi:rx="34.765625"
         sodipodi:cy="229.30281"
         sodipodi:cx="-871.27838"
         sodipodi:type="arc"
         id="path4146"
         style="fill:#de8787;fill-opacity:1;stroke:#000000;stroke-width:1;stroke-miterlimit:4;stroke-dasharray:none;stroke-opacity:1" />
      <path
         inkscape:export-ydpi="90"
         inkscape:export-xdpi="90"
         inkscape:connector-curvature="0"
         id="path4151"
         d="m 217.22709,818.95645 0.49114,21.57493"
         style="fill:none;fill-rule:evenodd;stroke:#000000;stroke-width:1.30651867;stroke-linecap:butt;stroke-linejoin:miter;stroke-miterlimit:4;stroke-dasharray:none;stroke-opacity:1" />
      <text
         inkscape:export-ydpi="90"
         inkscape:export-xdpi="90"
         sodipodi:linespacing="125%"
         id="text4163"
         y="1012.5753"
         x="47.200947"
         style="font-style:normal;font-variant:normal;font-weight:normal;font-stretch:normal;font-size:60px;line-height:125%;font-family:'Amatic SC';-inkscape-font-specification:'Amatic SC, Normal';text-align:start;letter-spacing:0px;word-spacing:0px;writing-mode:lr-tb;text-anchor:start;fill:#000000;fill-opacity:1;stroke:none;stroke-width:1px;stroke-linecap:butt;stroke-linejoin:miter;stroke-opacity:1"
         xml:space="preserve"><tspan
           y="1012.5753"
           x="47.200947"
           id="tspan4642"
           sodipodi:role="line">Steffi &amp; Justus</tspan></text>
      <ellipse
         inkscape:export-ydpi="90"
         inkscape:export-xdpi="90"
         transform="matrix(0.99500828,-0.09979239,0.09979239,0.99500828,0,0)"
         ry="3.176456"
         rx="9.9436893"
         cy="859.00311"
         cx="133.7854"
         id="path4367"
         style="fill:none;fill-opacity:1;stroke:#000000;stroke-width:1;stroke-miterlimit:4;stroke-dasharray:none;stroke-opacity:1" />
      <rect
         inkscape:export-ydpi="90"
         inkscape:export-xdpi="90"
         transform="matrix(0.9993084,-0.037185,0.03718501,0.9993084,0,0)"
         y="862.92023"
         x="408.23825"
         height="73.686455"
         width="53.049549"
         id="rect4153"
         style="fill:#decd87;fill-opacity:1;stroke:#000000;stroke-width:1.01310003;stroke-miterlimit:4;stroke-dasharray:none;stroke-opacity:1" />
      <path
         inkscape:export-ydpi="90"
         inkscape:export-xdpi="90"
         sodipodi:open="true"
         transform="matrix(-0.98329244,0.18203292,-0.20041158,-0.97971179,0,0)"
         d="m -268.67959,-912.52883 a 21.598122,23.062799 0 0 1 -23.72858,15.67973 21.598122,23.062799 0 0 1 -18.40601,-22.39569"
         sodipodi:end="3.1236236"
         sodipodi:start="0.31432117"
         sodipodi:ry="23.062799"
         sodipodi:rx="21.598122"
         sodipodi:cy="-919.65918"
         sodipodi:cx="-289.21954"
         sodipodi:type="arc"
         id="path4155"
         style="fill:none;stroke:#000000;stroke-width:1.01318884;stroke-miterlimit:4;stroke-dasharray:none;stroke-opacity:1" />
      <path
         inkscape:export-ydpi="90"
         inkscape:export-xdpi="90"
         style="fill:none;fill-rule:evenodd;stroke:#000000;stroke-width:1.1117748;stroke-linecap:butt;stroke-linejoin:miter;stroke-miterlimit:4;stroke-dasharray:none;stroke-opacity:1"
         d="m 464.34693,813.27071 0.69483,12.26916"
         id="path4157"
         inkscape:connector-curvature="0" />
      <path
         inkscape:export-ydpi="90"
         inkscape:export-xdpi="90"
         inkscape:connector-curvature="0"
         id="path4636"
         d="m 439.68551,847.08482 4.79097,-3.16549 51.89327,-2.20254 -3.33913,3.38302 2.73468,73.49204 4.44209,-4.78189 -3.27104,-72.38581"
         style="fill:#d3bc5f;fill-rule:evenodd;stroke:#000000;stroke-width:1.01310003px;stroke-linecap:butt;stroke-linejoin:miter;stroke-opacity:1" />
      <path
         inkscape:export-ydpi="90"
         inkscape:export-xdpi="90"
         sodipodi:nodetypes="ccc"
         inkscape:connector-curvature="0"
         id="path4721"
         d="m 318.22106,819.72442 c 9.34685,26.59043 25.47121,56.07387 46.06953,74.02433 5.66697,-23.75301 11.06769,-52.9672 20.28978,-76.55109"
         style="fill:none;fill-rule:evenodd;stroke:#000000;stroke-width:1px;stroke-linecap:butt;stroke-linejoin:miter;stroke-opacity:1" />
      <path
         inkscape:export-ydpi="90"
         inkscape:export-xdpi="90"
         sodipodi:nodetypes="ccc"
         inkscape:connector-curvature="0"
         id="path4777"
         d="m 60.049614,815.62319 c 9.422544,43.47821 20.695757,56.74652 35.151075,72.36968 12.397011,-32.54991 18.470731,-48.47035 33.278741,-68.23376"
         style="fill:none;fill-rule:evenodd;stroke:#000000;stroke-width:1px;stroke-linecap:butt;stroke-linejoin:miter;stroke-opacity:1" />
      <path
         sodipodi:nodetypes="cccccccccccccccccccccccccccccsccccccccccccccccccccccccc"
         inkscape:connector-curvature="0"
         id="path4504"
         d="m 435.50116,821.67497 c 0.10441,1.69965 10.46335,9.58285 12.45125,11.97866 0.76105,1.44065 -1.26577,2.61489 -3.21034,1.72375 -1.55911,-0.82705 -5.29908,-5.66598 -8.15958,-9.11473 1.84645,4.2418 5.38564,7.14176 6.86252,10.69495 0.60807,1.68844 -0.97451,3.19619 -2.91073,0.94229 -1.75776,-1.73588 -4.74249,-9.05213 -6.3381,-11.15712 1.37928,5.47266 2.97696,6.01942 4.44368,10.9204 1.0626,1.73144 -0.67693,4.09527 -2.42003,1.76054 -2.15632,-2.21838 -2.92972,-8.75005 -5.02822,-12.14758 0.18865,4.58149 3.21243,9.07594 2.73152,12.47608 -0.45758,1.01437 -0.77421,1.46722 -1.58055,1.8714 -2.29287,0.27491 -2.52821,-4.43002 -3.30463,-8.05308 -0.98436,-6.38909 -0.48717,-6.0088 -2.58532,-14.29274 -12.25474,-5.15415 -19.46647,-6.09541 -23.33031,-12.89838 -6.48253,-8.81487 -1.64445,-15.17612 2.03954,-25.6638 -0.0461,-0.0382 0.15975,-1.15514 0.11362,-1.19324 -0.91179,-1.53342 -1.92503,-1.23282 -3.52335,-1.08755 l -2.68365,0.61872 c -1.49109,0.63052 -3.57723,1.45812 2.68417,-3.57583 l 4e-5,0 c 0.84782,-2.64886 1.55925,-3.92485 5.87225,-4.5301 3.30785,0.0999 5.56454,1.27478 6.06798,2.9122 0.98162,2.92619 1.21018,7.19589 2.43745,9.8557 1.00279,2.39606 3.29051,2.97121 4.63298,4.75273 4.32245,2.71333 13.1459,12.60981 13.76323,16.49954 0.19721,1.12836 0.86714,2.98025 1.05606,4.46994 m -9.67862,-5.74011 c 0,0 1.4846,1.29304 2.56203,1.89347 3.45239,1.19042 7.75734,4.34387 9.55675,6.24383 1.79942,1.89996 -1.58044,1.2206 -5.4764,-1.27714 -1.05673,-0.51607 -2.38915,-1.18594 -3.12185,-1.37024 0.88362,1.40213 2.32725,1.88835 3.33025,3.15339 1.11645,1.31705 0.76397,1.97073 -2.33792,1.38243 -1.31995,-0.29627 -4.99191,-3.00676 -5.83277,-3.25226 0.84666,1.4176 4.45695,4.19182 0.0768,3.33863 -3.75909,-0.97074 -7.31272,-4.84081 -9.56469,-5.25358 m 18.04835,2.51005 c 0.21705,-0.055 2.15947,1.5645 3.60457,2.43197 6.13549,3.96196 11.37,6.47348 16.48348,12.45777 0.0584,0.0242 0.14961,-0.0382 0.19575,0 0.10315,0.0853 0.1148,0.22324 0.19573,0.32358 4.76793,3.87069 -1.75698,1.94373 -4.30629,0.80896 -0.0584,-0.0242 -0.13054,0 -0.19576,0 -1.78707,-0.43929 -4.28852,-1.33485 -5.47252,-1.97473 -2.54682,-1.62938 -5.68439,-2.46137 -8.09612,-3.57398 -3.16557,-1.60859 -5.57465,-2.22204 -7.9629,-3.34971 -6.24602,-3.51582 -5.56548,-2.8425 -7.43817,-4.04474 -0.36418,-0.20068 -0.81026,-0.2847 -1.17444,-0.48537 -1.43366,-0.68992 -2.75033,-2.29738 -4.11057,-2.75042 -4.71052,-3.44084 -10.23408,-7.02735 -10.63657,-12.49563 -0.78256,-4.10097 0.40003,-6.44702 1.97969,-7.25766 0.95811,-0.51162 2.38905,-0.83803 2.84442,-0.97075 1.72004,-0.30386 2.2752,-0.14678 4.05072,-0.14678 1.24992,-0.0269 2.48379,0.29284 3.71909,0.48536"
         style="fill:#ffffff;fill-opacity:1;fill-rule:evenodd;stroke:#000000;stroke-width:1;stroke-linecap:round;stroke-linejoin:miter;stroke-miterlimit:4;stroke-dasharray:none;stroke-opacity:1" />
      <path
         sodipodi:nodetypes="ccccc"
         inkscape:connector-curvature="0"
         id="path4517"
         d="m 404.17113,775.47648 c 1.75233,0.2328 2.2383,-0.5503 2.4267,-0.79074 -0.60153,-0.37713 -1.44171,-0.77689 -2.04288,-0.53178 -1.24091,0.76932 -0.84354,1.21018 -0.84354,1.21018 z"
         style="fill:none;fill-rule:evenodd;stroke:#000000;stroke-width:0.54100001;stroke-linecap:butt;stroke-linejoin:miter;stroke-miterlimit:4;stroke-dasharray:none;stroke-opacity:1" />
      <circle
         r="0.12604514"
         cy="774.896"
         cx="404.77466"
         id="path4523"
         style="opacity:1;fill:#000000;fill-opacity:1;fill-rule:evenodd;stroke:#000000;stroke-width:0.42781141;stroke-miterlimit:4;stroke-dasharray:none;stroke-opacity:1" />
      <path
         style="fill:#ffffff;fill-opacity:1;fill-rule:evenodd;stroke:#000000;stroke-width:0.99025363;stroke-linecap:round;stroke-linejoin:miter;stroke-miterlimit:4;stroke-dasharray:none;stroke-opacity:1"
         d="m 279.74982,825.67708 c -0.10237,1.69988 -10.25897,9.58416 -12.20805,11.9803 -0.74618,1.44085 1.24105,2.61525 3.14764,1.72399 1.52865,-0.82716 5.19557,-5.66676 8.0002,-9.11598 -1.81038,4.24238 -5.28044,7.14274 -6.72848,10.69642 -0.59619,1.68867 0.95548,3.19663 2.85388,0.94242 1.72343,-1.73612 4.64986,-9.05338 6.2143,-11.15866 -1.35234,5.47342 -2.91881,6.02025 -4.35688,10.92191 -1.04185,1.73167 0.6637,4.09583 2.37276,1.76078 2.1142,-2.21869 2.87249,-8.75126 4.93,-12.14925 -0.18496,4.58212 -3.14968,9.07718 -2.67816,12.47779 0.44864,1.01451 0.75908,1.46742 1.54967,1.87166 2.24809,0.27495 2.47883,-4.43063 3.24009,-8.05419 0.96513,-6.38997 0.47765,-6.00962 2.53482,-14.2947 12.01537,-5.15486 19.08624,-6.09625 22.87461,-12.90016 6.3559,-8.81608 1.61232,-15.17821 -1.99971,-25.66733 0.0452,-0.0382 -0.15663,-1.1553 -0.1114,-1.19341 0.89398,-1.53363 1.88743,-1.23298 3.45453,-1.08769 l 2.63123,0.6188 c 1.46197,0.63061 3.50736,1.45832 -2.63174,-3.57632 l -4e-5,0 c -0.83126,-2.64923 -1.52879,-3.92539 -5.75755,-4.53073 -3.24324,0.0999 -5.45585,1.27496 -5.94945,2.91261 -0.96245,2.92659 -1.18655,7.19688 -2.38984,9.85705 -0.98321,2.39639 -3.22624,2.97162 -4.54249,4.75339 -4.23802,2.7137 -12.88913,12.61154 -13.4944,16.50181 -0.19336,1.12851 -0.8502,2.98066 -1.03543,4.47055 m 9.48957,-5.7409 c 0,0 -1.4556,1.29322 -2.51199,1.89373 -3.38495,1.19059 -7.60581,4.34447 -9.37008,6.24469 -1.76427,1.90022 1.54957,1.22077 5.36943,-1.27731 1.03609,-0.51615 2.34249,-1.18611 3.06088,-1.37043 -0.86636,1.40232 -2.2818,1.88861 -3.2652,3.15382 -1.09465,1.31723 -0.74905,1.971 2.29225,1.38262 1.29417,-0.29631 4.8944,-3.00717 5.71884,-3.25271 -0.83012,1.4178 -4.36989,4.1924 -0.0753,3.33909 3.68567,-0.97087 7.16988,-4.84147 9.37787,-5.2543 m -17.69582,2.5104 c -0.21281,-0.055 -2.11729,1.56471 -3.53417,2.4323 -6.01564,3.96251 -11.14791,6.47437 -16.16151,12.45948 -0.0573,0.0242 -0.14669,-0.0382 -0.19193,0 -0.10113,0.0853 -0.11255,0.22327 -0.1919,0.32363 -4.6748,3.87122 1.72266,1.944 4.22217,0.80907 0.0573,-0.0242 0.12799,0 0.19194,0 1.75216,-0.43935 4.20475,-1.33503 5.36563,-1.975 2.49707,-1.62961 5.57336,-2.46171 7.93798,-3.57447 3.10374,-1.60881 5.46576,-2.22235 7.80736,-3.35017 6.12402,-3.51631 5.45677,-2.8429 7.29289,-4.0453 0.35706,-0.20071 0.79443,-0.28474 1.1515,-0.48544 1.40565,-0.69001 2.6966,-2.29769 4.03028,-2.7508 4.61851,-3.44131 10.03418,-7.02831 10.42881,-12.49735 0.76727,-4.10153 -0.39222,-6.4479 -1.94103,-7.25865 -0.93939,-0.51169 -2.34238,-0.83815 -2.78886,-0.97089 -1.68644,-0.3039 -2.23076,-0.1468 -3.9716,-0.1468 -1.2255,-0.0269 -2.43527,0.29288 -3.64644,0.48543"
         id="path4532"
         inkscape:connector-curvature="0"
         sodipodi:nodetypes="cccccccccccccccccccccccccccccsccccccccccccccccccccccccc" />
      <path
         style="fill:none;fill-rule:evenodd;stroke:#000000;stroke-width:0.53572726;stroke-linecap:butt;stroke-linejoin:miter;stroke-miterlimit:4;stroke-dasharray:none;stroke-opacity:1"
         d="m 310.46789,779.47223 c -1.7181,0.23283 -2.19458,-0.55038 -2.3793,-0.79085 0.58978,-0.37718 1.41355,-0.777 2.00298,-0.53185 1.21667,0.76942 0.82706,1.21034 0.82706,1.21034 z"
         id="path4534"
         inkscape:connector-curvature="0"
         sodipodi:nodetypes="ccccc" />
      <ellipse
         ry="0.12606248"
         rx="0.12358315"
         transform="scale(-1,1)"
         style="opacity:1;fill:#000000;fill-opacity:1;fill-rule:evenodd;stroke:#000000;stroke-width:0.4236418;stroke-miterlimit:4;stroke-dasharray:none;stroke-opacity:1"
         id="circle4536"
         cx="-309.87616"
         cy="778.89166" />
      <ellipse
         inkscape:export-ydpi="90"
         inkscape:export-xdpi="90"
         ry="4.7526045"
         rx="4.8409929"
         cy="828.69629"
         cx="96.166527"
         id="path4540"
         style="opacity:1;fill:#de8787;fill-opacity:1;fill-rule:evenodd;stroke:#000000;stroke-width:0.4049558;stroke-linecap:round;stroke-miterlimit:4;stroke-dasharray:none;stroke-opacity:1" />
      <path
         inkscape:export-ydpi="90"
         inkscape:export-xdpi="90"
         sodipodi:open="true"
         d="m 118.45951,834.30149 a 5.1232862,5.0082803 0 0 1 -4.6612,-4.60582 5.1232862,5.0082803 0 0 1 3.8874,-5.24736 5.1232862,5.0082803 0 0 1 5.93049,2.8925"
         sodipodi:end="5.8785866"
         sodipodi:start="1.6581668"
         sodipodi:ry="5.0082803"
         sodipodi:rx="5.1232862"
         sodipodi:cy="829.31232"
         sodipodi:cx="118.90656"
         sodipodi:type="arc"
         style="opacity:1;fill:#de8787;fill-opacity:1;fill-rule:evenodd;stroke:#000000;stroke-width:0.41912913;stroke-linecap:round;stroke-miterlimit:4;stroke-dasharray:none;stroke-opacity:1"
         id="use4546" />
      <use
         inkscape:export-ydpi="90"
         inkscape:export-xdpi="90"
         style="fill:#de8787;fill-opacity:1;stroke:#000000;stroke-opacity:1"
         height="100%"
         width="100%"
         transform="matrix(1.054438,0,0,0.99889776,-9.3875882,35.382923)"
         id="use4548"
         xlink:href="#path4540"
         y="0"
         x="0" />
      <path
         inkscape:export-ydpi="90"
         inkscape:export-xdpi="90"
         sodipodi:open="true"
         inkscape:transform-center-y="6.9827838"
         inkscape:transform-center-x="4.1054421"
         transform="matrix(-0.76412843,0.64506414,-0.6831709,-0.73025853,0,0)"
         d="m 533.68005,-704.46773 a 5.1989965,5.2395201 0 0 1 -1.88507,-5.38423 5.1989965,5.2395201 0 0 1 4.11598,-3.92334"
         sodipodi:end="4.5310395"
         sodipodi:start="2.2261763"
         sodipodi:ry="5.2395201"
         sodipodi:rx="5.1989965"
         sodipodi:cy="-708.6217"
         sodipodi:cx="536.84863"
         sodipodi:type="arc"
         style="opacity:1;fill:#de8787;fill-opacity:1;fill-rule:evenodd;stroke:#000000;stroke-width:0.4406361;stroke-linecap:round;stroke-miterlimit:4;stroke-dasharray:none;stroke-opacity:1"
         id="use4552" />
      <path
         inkscape:export-ydpi="90"
         inkscape:export-xdpi="90"
         transform="matrix(0.98933739,-0.1456418,0.1456418,0.98933739,0,0)"
         sodipodi:open="true"
         d="m -34.940444,891.90159 a 5.2740383,4.7388163 0 0 1 -1.454129,-5.52537 5.2740383,4.7388163 0 0 1 5.489022,-2.8129"
         sodipodi:end="4.836403"
         sodipodi:start="2.2670553"
         sodipodi:ry="4.7388163"
         sodipodi:rx="5.2740383"
         sodipodi:cy="888.26575"
         sodipodi:cx="-31.55793"
         sodipodi:type="arc"
         style="opacity:1;fill:#de8787;fill-opacity:1;fill-rule:evenodd;stroke:#000000;stroke-width:0.41365263;stroke-linecap:round;stroke-miterlimit:4;stroke-dasharray:none;stroke-opacity:1"
         id="ellipse4560" />
      <ellipse
         inkscape:export-ydpi="90"
         inkscape:export-xdpi="90"
         style="opacity:1;fill:#de8787;fill-opacity:1;fill-rule:evenodd;stroke:#000000;stroke-width:0.4049558;stroke-linecap:round;stroke-miterlimit:4;stroke-dasharray:none;stroke-opacity:1"
         id="ellipse4562"
         cx="73.892662"
         cy="827.2821"
         rx="4.8409929"
         ry="4.7526045" />
      <ellipse
         inkscape:export-ydpi="90"
         inkscape:export-xdpi="90"
         style="opacity:1;fill:#de8787;fill-opacity:1;fill-rule:evenodd;stroke:#000000;stroke-width:0.4049558;stroke-linecap:round;stroke-miterlimit:4;stroke-dasharray:none;stroke-opacity:1"
         id="ellipse4568"
         cx="83.166527"
         cy="843.69629"
         rx="4.8409929"
         ry="4.7526045" />
      <ellipse
         inkscape:export-ydpi="90"
         inkscape:export-xdpi="90"
         style="opacity:1;fill:#de8787;fill-opacity:1;fill-rule:evenodd;stroke:#000000;stroke-width:0.4049558;stroke-linecap:round;stroke-miterlimit:4;stroke-dasharray:none;stroke-opacity:1"
         id="ellipse4570"
         cx="105.16653"
         cy="846.44629"
         rx="4.8409929"
         ry="4.7526045" />
      <ellipse
         inkscape:export-ydpi="90"
         inkscape:export-xdpi="90"
         ry="4.7526045"
         rx="4.8409929"
         cy="828.2821"
         cx="332.39267"
         id="ellipse4624"
         style="opacity:1;fill:#de8787;fill-opacity:1;fill-rule:evenodd;stroke:#000000;stroke-width:0.4049558;stroke-linecap:round;stroke-miterlimit:4;stroke-dasharray:none;stroke-opacity:1" />
      <ellipse
         inkscape:export-ydpi="90"
         inkscape:export-xdpi="90"
         style="opacity:1;fill:#de8787;fill-opacity:1;fill-rule:evenodd;stroke:#000000;stroke-width:0.4049558;stroke-linecap:round;stroke-miterlimit:4;stroke-dasharray:none;stroke-opacity:1"
         id="ellipse4626"
         cx="353.39267"
         cy="827.7821"
         rx="4.8409929"
         ry="4.7526045" />
      <ellipse
         inkscape:export-ydpi="90"
         inkscape:export-xdpi="90"
         ry="4.7526045"
         rx="4.8409929"
         cy="827.2821"
         cx="373.39267"
         id="ellipse4628"
         style="opacity:1;fill:#de8787;fill-opacity:1;fill-rule:evenodd;stroke:#000000;stroke-width:0.4049558;stroke-linecap:round;stroke-miterlimit:4;stroke-dasharray:none;stroke-opacity:1" />
      <ellipse
         inkscape:export-ydpi="90"
         inkscape:export-xdpi="90"
         style="opacity:1;fill:#de8787;fill-opacity:1;fill-rule:evenodd;stroke:#000000;stroke-width:0.4049558;stroke-linecap:round;stroke-miterlimit:4;stroke-dasharray:none;stroke-opacity:1"
         id="ellipse4630"
         cx="345.39267"
         cy="844.2821"
         rx="4.8409929"
         ry="4.7526045" />
      <ellipse
         inkscape:export-ydpi="90"
         inkscape:export-xdpi="90"
         ry="4.7526045"
         rx="4.8409929"
         cy="843.7821"
         cx="366.39267"
         id="ellipse4632"
         style="opacity:1;fill:#de8787;fill-opacity:1;fill-rule:evenodd;stroke:#000000;stroke-width:0.4049558;stroke-linecap:round;stroke-miterlimit:4;stroke-dasharray:none;stroke-opacity:1" />
      <ellipse
         inkscape:export-ydpi="90"
         inkscape:export-xdpi="90"
         style="opacity:1;fill:#de8787;fill-opacity:1;fill-rule:evenodd;stroke:#000000;stroke-width:0.4049558;stroke-linecap:round;stroke-miterlimit:4;stroke-dasharray:none;stroke-opacity:1"
         id="ellipse4634"
         cx="356.89267"
         cy="860.7821"
         rx="4.8409929"
         ry="4.7526045" />
      <path
         inkscape:export-ydpi="90"
         inkscape:export-xdpi="90"
         d="m 367.70839,877.98699 a 4.8409929,4.7526045 0 0 1 -3.93547,-3.28455 4.8409929,4.7526045 0 0 1 1.32415,-4.90161 4.8409929,4.7526045 0 0 1 5.07622,-0.93815 l -1.78062,4.41942 z"
         sodipodi:end="5.0890545"
         sodipodi:start="1.7126233"
         sodipodi:ry="4.7526045"
         sodipodi:rx="4.8409929"
         sodipodi:cy="873.2821"
         sodipodi:cx="368.39267"
         sodipodi:type="arc"
         id="ellipse4636"
         style="opacity:1;fill:#de8787;fill-opacity:1;fill-rule:evenodd;stroke:#000000;stroke-width:0.4049558;stroke-linecap:round;stroke-miterlimit:4;stroke-dasharray:none;stroke-opacity:1" />
      <path
         inkscape:export-ydpi="90"
         inkscape:export-xdpi="90"
         sodipodi:open="true"
         d="m 346.29193,873.10546 a 4.8409929,4.7526045 0 0 1 5.31542,-1.26785 4.8409929,4.7526045 0 0 1 3.12616,4.40675 4.8409929,4.7526045 0 0 1 -3.05447,4.45494"
         sodipodi:end="1.1928547"
         sodipodi:start="3.8736499"
         sodipodi:ry="4.7526045"
         sodipodi:rx="4.8409929"
         sodipodi:cy="876.2821"
         sodipodi:cx="349.89267"
         sodipodi:type="arc"
         style="opacity:1;fill:#de8787;fill-opacity:1;fill-rule:evenodd;stroke:#000000;stroke-width:0.4049558;stroke-linecap:round;stroke-miterlimit:4;stroke-dasharray:none;stroke-opacity:1"
         id="ellipse4638" />
      <path
         inkscape:export-ydpi="90"
         inkscape:export-xdpi="90"
         sodipodi:open="true"
         d="m 335.76772,857.1596 a 4.8409929,4.7526045 0 0 1 5.29064,2.20132 4.8409929,4.7526045 0 0 1 -0.57854,5.61261"
         sodipodi:end="0.73624533"
         sodipodi:start="4.4778646"
         sodipodi:ry="4.7526045"
         sodipodi:rx="4.8409929"
         sodipodi:cy="861.7821"
         sodipodi:cx="336.89267"
         sodipodi:type="arc"
         id="ellipse4640"
         style="opacity:1;fill:#de8787;fill-opacity:1;fill-rule:evenodd;stroke:#000000;stroke-width:0.4049558;stroke-linecap:round;stroke-miterlimit:4;stroke-dasharray:none;stroke-opacity:1" />
      <text
         inkscape:export-ydpi="90"
         inkscape:export-xdpi="90"
         sodipodi:linespacing="125%"
         id="text4295"
         y="1014.1784"
         x="310.37823"
         style="font-style:normal;font-weight:normal;font-size:40px;line-height:125%;font-family:sans-serif;letter-spacing:0px;word-spacing:0px;fill:#000000;fill-opacity:1;stroke:none;stroke-width:1px;stroke-linecap:butt;stroke-linejoin:miter;stroke-opacity:1"
         xml:space="preserve"><tspan
           style="font-style:normal;font-variant:normal;font-weight:normal;font-stretch:normal;font-size:40px;line-height:125%;font-family:'Amatic SC';-inkscape-font-specification:'Amatic SC, Normal';text-align:start;writing-mode:lr-tb;text-anchor:start"
           y="1014.1784"
           x="310.37823"
           id="tspan4297"
           sodipodi:role="line">22.04.2017</tspan></text>
      <path
         sodipodi:nodetypes="ccssaccccc"
         inkscape:connector-curvature="0"
         id="path4300"
         d="m 320.97189,767.0348 -2.12132,-10.25306 c -21.54756,-2.01352 -21.0784,-25.76909 -4.94975,-45.25484 7.09054,-8.5664 21.78199,-12.92755 67.66555,-2.13115 9.92949,2.33641 26.79982,16.22915 25.83471,29.18573 -0.63346,8.50407 -19.6076,16.43249 -19.6076,16.43249 l 0.68355,10.58776 c -2.82547,-1.85337 0,0 -11.99725,-7.40578 l -45.60839,0 z"
         style="fill:none;fill-rule:evenodd;stroke:#000000;stroke-width:1px;stroke-linecap:butt;stroke-linejoin:miter;stroke-opacity:1" />
      <text
         sodipodi:linespacing="125%"
         id="text4302"
         y="724.12006"
         x="351.77219"
         style="font-style:normal;font-variant:normal;font-weight:normal;font-stretch:normal;font-size:17.5px;line-height:125%;font-family:'Amatic SC';-inkscape-font-specification:'Amatic SC, Normal';text-align:center;letter-spacing:0px;word-spacing:0px;writing-mode:lr-tb;text-anchor:middle;fill:#000000;fill-opacity:1;stroke:none;stroke-width:1px;stroke-linecap:butt;stroke-linejoin:miter;stroke-opacity:1"
         xml:space="preserve"><tspan
           id="tspan4306"
           y="724.12006"
           x="351.77219"
           sodipodi:role="line">Dit wird jut.</tspan><tspan
           y="745.99506"
           x="351.77219"
           sodipodi:role="line"
           id="tspan4343">Freun uns wie bolle.</tspan></text>
      <path
         inkscape:export-ydpi="90"
         inkscape:export-xdpi="90"
         sodipodi:nodetypes="cccccccccccccccccccccccccccccsccccccccccccccccccccccccc"
         inkscape:connector-curvature="0"
         id="path4328"
         d="m 279.74982,825.67708 c -0.10237,1.69988 -10.25897,9.58416 -12.20805,11.9803 -0.74618,1.44085 1.24105,2.61525 3.14764,1.72399 1.52865,-0.82716 5.19557,-5.66676 8.0002,-9.11598 -1.81038,4.24238 -5.28044,7.14274 -6.72848,10.69642 -0.59619,1.68867 0.95548,3.19663 2.85388,0.94242 1.72343,-1.73612 4.64986,-9.05338 6.2143,-11.15866 -1.35234,5.47342 -2.91881,6.02025 -4.35688,10.92191 -1.04185,1.73167 0.6637,4.09583 2.37276,1.76078 2.1142,-2.21869 2.87249,-8.75126 4.93,-12.14925 -0.18496,4.58212 -3.14968,9.07718 -2.67816,12.47779 0.44864,1.01451 0.75908,1.46742 1.54967,1.87166 2.24809,0.27495 2.47883,-4.43063 3.24009,-8.05419 0.96513,-6.38997 0.47765,-6.00962 2.53482,-14.2947 12.01537,-5.15486 19.08624,-6.09625 22.87461,-12.90016 6.3559,-8.81608 1.61232,-15.17821 -1.99971,-25.66733 0.0452,-0.0382 -0.15663,-1.1553 -0.1114,-1.19341 0.89398,-1.53363 1.88743,-1.23298 3.45453,-1.08769 l 2.63123,0.6188 c 1.46197,0.63061 3.50736,1.45832 -2.63174,-3.57632 l -4e-5,0 c -0.83126,-2.64923 -1.52879,-3.92539 -5.75755,-4.53073 -3.24324,0.0999 -5.45585,1.27496 -5.94945,2.91261 -0.96245,2.92659 -1.18655,7.19688 -2.38984,9.85705 -0.98321,2.39639 -3.22624,2.97162 -4.54249,4.75339 -4.23802,2.7137 -12.88913,12.61154 -13.4944,16.50181 -0.19336,1.12851 -0.8502,2.98066 -1.03543,4.47055 m 9.48957,-5.7409 c 0,0 -1.4556,1.29322 -2.51199,1.89373 -3.38495,1.19059 -7.60581,4.34447 -9.37008,6.24469 -1.76427,1.90022 1.54957,1.22077 5.36943,-1.27731 1.03609,-0.51615 2.34249,-1.18611 3.06088,-1.37043 -0.86636,1.40232 -2.2818,1.88861 -3.2652,3.15382 -1.09465,1.31723 -0.74905,1.971 2.29225,1.38262 1.29417,-0.29631 4.8944,-3.00717 5.71884,-3.25271 -0.83012,1.4178 -4.36989,4.1924 -0.0753,3.33909 3.68567,-0.97087 7.16988,-4.84147 9.37787,-5.2543 m -17.69582,2.5104 c -0.21281,-0.055 -2.11729,1.56471 -3.53417,2.4323 -6.01564,3.96251 -11.14791,6.47437 -16.16151,12.45948 -0.0573,0.0242 -0.14669,-0.0382 -0.19193,0 -0.10113,0.0853 -0.11255,0.22327 -0.1919,0.32363 -4.6748,3.87122 1.72266,1.944 4.22217,0.80907 0.0573,-0.0242 0.12799,0 0.19194,0 1.75216,-0.43935 4.20475,-1.33503 5.36563,-1.975 2.49707,-1.62961 5.57336,-2.46171 7.93798,-3.57447 3.10374,-1.60881 5.46576,-2.22235 7.80736,-3.35017 6.12402,-3.51631 5.45677,-2.8429 7.29289,-4.0453 0.35706,-0.20071 0.79443,-0.28474 1.1515,-0.48544 1.40565,-0.69001 2.6966,-2.29769 4.03028,-2.7508 4.61851,-3.44131 10.03418,-7.02831 10.42881,-12.49735 0.76727,-4.10153 -0.39222,-6.4479 -1.94103,-7.25865 -0.93939,-0.51169 -2.34238,-0.83815 -2.78886,-0.97089 -1.68644,-0.3039 -2.23076,-0.1468 -3.9716,-0.1468 -1.2255,-0.0269 -2.43527,0.29288 -3.64644,0.48543"
         style="fill:#ffffff;fill-opacity:1;fill-rule:evenodd;stroke:#000000;stroke-width:0.99025363;stroke-linecap:round;stroke-linejoin:miter;stroke-miterlimit:4;stroke-dasharray:none;stroke-opacity:1" />
      <path
         inkscape:export-ydpi="90"
         inkscape:export-xdpi="90"
         sodipodi:nodetypes="ccccc"
         inkscape:connector-curvature="0"
         id="path4330"
         d="m 310.46789,779.47223 c -1.7181,0.23283 -2.19458,-0.55038 -2.3793,-0.79085 0.58978,-0.37718 1.41355,-0.777 2.00298,-0.53185 1.21667,0.76942 0.82706,1.21034 0.82706,1.21034 z"
         style="fill:none;fill-rule:evenodd;stroke:#000000;stroke-width:0.53572726;stroke-linecap:butt;stroke-linejoin:miter;stroke-miterlimit:4;stroke-dasharray:none;stroke-opacity:1" />
      <ellipse
         inkscape:export-ydpi="90"
         inkscape:export-xdpi="90"
         ry="0.12606248"
         rx="0.12358315"
         transform="scale(-1,1)"
         cy="778.89166"
         cx="-309.87616"
         id="circle4332"
         style="opacity:1;fill:#000000;fill-opacity:1;fill-rule:evenodd;stroke:#000000;stroke-width:0.4236418;stroke-miterlimit:4;stroke-dasharray:none;stroke-opacity:1" />
    </g>
  </g>
</svg>
